<?xml version="1.0" encoding="UTF-8" standalone="no"?>
<!DOCTYPE svg PUBLIC "-//W3C//DTD SVG 1.1//EN"
 "http://www.w3.org/Graphics/SVG/1.1/DTD/svg11.dtd">
<!-- Generated by graphviz version 2.38.0 (20140413.2041)
 -->
<!-- Title: models_diagram Pages: 1 -->
<svg width="656pt" height="243pt"
 viewBox="0.00 0.00 656.00 243.00" xmlns="http://www.w3.org/2000/svg" xmlns:xlink="http://www.w3.org/1999/xlink">
<g id="graph0" class="graph" transform="scale(1 1) rotate(0) translate(4 239)">
<title>models_diagram</title>
<polygon fill="none" stroke="none" points="-4,4 -4,-239 652,-239 652,4 -4,4"/>
<!-- _diagram_info -->
<g id="node1" class="node"><title>_diagram_info</title>
<text text-anchor="start" x="8" y="-213.6" font-family="Times,serif" font-size="13.00">Models diagram</text>
<text text-anchor="start" x="8" y="-199.6" font-family="Times,serif" font-size="13.00">Date: Feb 20 2017 &#45; 17:18</text>
<text text-anchor="start" x="8" y="-185.6" font-family="Times,serif" font-size="13.00">Migration version: 20170220200311</text>
<text text-anchor="start" x="8" y="-171.6" font-family="Times,serif" font-size="13.00">Generated by RailRoady 1.5.2</text>
<text text-anchor="start" x="8" y="-157.6" font-family="Times,serif" font-size="13.00">http://railroady.prestonlee.com</text>
</g>
<!-- ApplicationRecord -->
<g id="node2" class="node"><title>ApplicationRecord</title>
<ellipse fill="none" stroke="black" cx="309" cy="-189" rx="77.1866" ry="18"/>
<text text-anchor="middle" x="309" y="-185.3" font-family="Times,serif" font-size="14.00">ApplicationRecord</text>
</g>
<!-- Category -->
<g id="node3" class="node"><title>Category</title>
<path fill="none" stroke="black" d="M416,-143.5C416,-143.5 636,-143.5 636,-143.5 642,-143.5 648,-149.5 648,-155.5 648,-155.5 648,-222.5 648,-222.5 648,-228.5 642,-234.5 636,-234.5 636,-234.5 416,-234.5 416,-234.5 410,-234.5 404,-228.5 404,-222.5 404,-222.5 404,-155.5 404,-155.5 404,-149.5 410,-143.5 416,-143.5"/>
<text text-anchor="middle" x="526" y="-219.3" font-family="Times,serif" font-size="14.00">Category</text>
<polyline fill="none" stroke="black" points="404,-211.5 648,-211.5 "/>
<text text-anchor="start" x="412" y="-196.3" font-family="Times,serif" font-size="14.00">id :integer</text>
<text text-anchor="start" x="412" y="-181.3" font-family="Times,serif" font-size="14.00">name :character varying</text>
<text text-anchor="start" x="412" y="-166.3" font-family="Times,serif" font-size="14.00">created_at :timestamp without time zone</text>
<text text-anchor="start" x="412" y="-151.3" font-family="Times,serif" font-size="14.00">updated_at :timestamp without time zone</text>
</g>
<!-- Product -->
<g id="node4" class="node"><title>Product</title>
<path fill="none" stroke="black" d="M416,-0.5C416,-0.5 636,-0.5 636,-0.5 642,-0.5 648,-6.5 648,-12.5 648,-12.5 648,-94.5 648,-94.5 648,-100.5 642,-106.5 636,-106.5 636,-106.5 416,-106.5 416,-106.5 410,-106.5 404,-100.5 404,-94.5 404,-94.5 404,-12.5 404,-12.5 404,-6.5 410,-0.5 416,-0.5"/>
<text text-anchor="middle" x="526" y="-91.3" font-family="Times,serif" font-size="14.00">Product</text>
<polyline fill="none" stroke="black" points="404,-83.5 648,-83.5 "/>
<text text-anchor="start" x="412" y="-68.3" font-family="Times,serif" font-size="14.00">id :integer</text>
<text text-anchor="start" x="412" y="-53.3" font-family="Times,serif" font-size="14.00">title :character varying</text>
<text text-anchor="start" x="412" y="-38.3" font-family="Times,serif" font-size="14.00">created_at :timestamp without time zone</text>
<text text-anchor="start" x="412" y="-23.3" font-family="Times,serif" font-size="14.00">updated_at :timestamp without time zone</text>
<text text-anchor="start" x="412" y="-8.3" font-family="Times,serif" font-size="14.00">category_id :integer</text>
</g>
<!-- Category&#45;&gt;Product -->
<g id="edge1" class="edge"><title>Category&#45;&gt;Product</title>
<path fill="none" stroke="#50a68c" d="M526,-135.111C526,-129.148 526,-123.03 526,-116.96"/>
<ellipse fill="none" stroke="#50a68c" cx="526" cy="-139.175" rx="4" ry="4"/>
<polygon fill="#50a68c" stroke="#50a68c" points="526,-116.824 530.5,-106.824 526,-111.824 526,-106.824 526,-106.824 526,-106.824 526,-111.824 521.5,-106.824 526,-116.824 526,-116.824"/>
</g>
</g>
</svg>
